<?xml version="1.0" standalone="no"?>
<!DOCTYPE svg PUBLIC "-//W3C//DTD SVG 20010904//EN"
 "http://www.w3.org/TR/2001/REC-SVG-20010904/DTD/svg10.dtd">
<svg version="1.0" xmlns="http://www.w3.org/2000/svg"
 width="500.000000pt" height="500.000000pt" viewBox="0 0 500.000000 500.000000"
 preserveAspectRatio="xMidYMid meet">
<metadata>
Created by potrace 1.11, written by Peter Selinger 2001-2013
</metadata>
<g transform="translate(0.000000,500.000000) scale(0.100000,-0.100000)"
fill="#000000" stroke="none">
<path d="M2380 4329 c-176 -12 -298 -35 -455 -86 -584 -190 -1045 -681 -1200
-1278 -111 -428 -62 -895 135 -1288 237 -471 660 -814 1172 -951 295 -79 641
-79 936 0 444 119 827 396 1075 779 306 474 375 1087 182 1620 -277 767 -1032
1260 -1845 1204z m380 -124 c506 -79 939 -367 1212 -808 121 -195 205 -432
239 -672 15 -114 15 -356 0 -460 -78 -518 -369 -961 -814 -1237 -262 -164
-572 -251 -887 -250 -479 0 -899 173 -1234 508 -260 260 -427 596 -487 979
-17 108 -14 378 4 490 65 389 225 701 498 973 382 381 935 560 1469 477z"/>
<path d="M2355 3828 c-28 -15 -55 -50 -55 -70 0 -10 2 -18 5 -18 10 0 300 91
304 96 10 10 -235 3 -254 -8z"/>
<path d="M2688 3814 c23 -14 42 -29 42 -34 0 -5 57 -11 128 -12 l127 -3 6
-430 5 -430 26 -75 c14 -41 31 -76 37 -78 8 -3 11 136 11 498 0 425 -2 505
-15 530 -29 56 -43 60 -235 60 l-175 0 43 -26z"/>
<path d="M2505 3750 c-33 -9 -86 -25 -117 -34 -32 -10 -58 -20 -58 -24 0 -4
21 -16 46 -26 l46 -19 90 29 c67 21 93 26 106 18 17 -11 35 -66 158 -469 62
-204 71 -226 126 -308 33 -49 62 -87 64 -84 5 5 -41 162 -177 597 -77 247 -93
289 -119 313 -36 32 -76 34 -165 7z"/>
<path d="M2135 3636 c-55 -18 -111 -38 -123 -45 -38 -21 -71 -121 -39 -121 7
0 27 14 46 30 18 17 47 38 64 46 52 27 167 106 167 115 0 12 -1 12 -115 -25z"/>
<path d="M2145 3525 c-71 -47 -131 -89 -133 -94 -2 -5 19 -11 45 -13 46 -5 53
-2 150 63 57 38 109 66 117 63 13 -5 82 -104 363 -524 88 -132 115 -164 181
-217 75 -61 101 -76 86 -50 -4 6 -103 154 -220 327 -386 572 -353 530 -419
530 -33 0 -62 -15 -170 -85z"/>
<path d="M1880 3348 c-131 -91 -155 -127 -130 -193 l11 -29 24 29 c13 17 24
35 25 41 0 6 7 18 17 25 9 8 38 43 65 78 68 90 65 102 -12 49z"/>
<path d="M2023 3353 c-12 -2 -32 -14 -45 -26 -25 -24 -148 -182 -148 -191 0
-3 19 -6 43 -6 42 0 44 2 96 75 38 53 60 75 75 75 12 0 135 -91 296 -220 247
-196 286 -224 378 -265 56 -26 107 -45 113 -43 6 2 -67 66 -163 142 -95 76
-234 187 -308 246 -230 185 -263 210 -276 210 -7 0 -18 2 -26 4 -7 2 -23 1
-35 -1z"/>
<path d="M1843 3046 c-18 -15 -40 -53 -58 -98 -15 -40 -67 -158 -113 -263 -54
-120 -86 -203 -86 -226 -1 -67 14 -78 276 -192 134 -58 277 -119 318 -135 41
-17 168 -71 283 -121 177 -78 215 -91 261 -91 43 0 58 5 76 23 12 12 61 115
109 227 48 113 100 231 114 264 32 70 35 124 7 158 -19 25 -207 112 -445 206
-55 22 -163 68 -240 102 -242 108 -403 170 -439 170 -22 0 -45 -9 -63 -24z
m154 -77 c37 -17 142 -62 233 -99 91 -37 273 -115 406 -172 133 -56 262 -111
287 -121 25 -10 49 -27 52 -37 6 -19 -19 -83 -144 -365 -65 -146 -84 -181
-102 -183 -12 -2 -53 10 -93 26 -39 17 -204 87 -366 155 -162 69 -361 153
-442 187 -81 35 -153 69 -160 77 -9 11 -7 26 7 66 31 87 207 482 219 489 18
12 31 9 103 -23z"/>
<path d="M2248 2673 c-87 -31 -159 -62 -162 -70 -8 -20 104 -334 121 -340 14
-6 308 92 331 110 6 5 12 16 12 24 0 19 -100 304 -113 321 -13 17 -15 17 -189
-45z m182 -135 c19 -57 35 -107 35 -112 0 -6 -204 -85 -222 -86 -5 0 -73 223
-69 227 6 6 196 71 211 72 6 1 26 -45 45 -101z"/>
<path d="M1686 2949 c-37 -50 -73 -103 -79 -119 -13 -34 2 -95 23 -95 8 0 37
55 72 140 33 77 62 146 65 153 15 35 -20 1 -81 -79z"/>
<path d="M2795 1680 c-16 -11 -24 -20 -17 -20 8 0 12 -22 12 -77 l-1 -78 -52
-25 c-62 -30 -93 -72 -102 -139 -7 -52 8 -101 33 -109 7 -2 33 17 58 42 42 44
44 45 44 21 0 -30 16 -65 30 -65 14 0 80 60 80 73 0 5 -8 3 -18 -6 -46 -42
-49 -18 -29 232 14 166 10 183 -38 151z m-15 -247 c0 -16 -11 -50 -24 -78 -45
-97 -80 -96 -73 2 5 67 28 103 67 103 26 0 30 -4 30 -27z"/>
<path d="M1996 1580 c-62 -24 -101 -62 -122 -117 -56 -146 80 -275 224 -213
64 28 67 40 6 29 -82 -15 -146 12 -175 74 -10 23 -19 56 -19 72 0 47 35 112
69 129 36 19 113 21 141 4 16 -10 23 -10 36 4 9 9 13 21 10 27 -11 18 -116 12
-170 -9z"/>
<path d="M2272 1473 c-70 -45 -103 -147 -70 -218 16 -36 35 -31 85 20 l43 45
0 -40 c0 -56 22 -62 66 -19 19 18 34 40 34 48 -1 12 -6 10 -20 -7 -26 -32 -40
-20 -35 31 2 23 7 70 10 105 l5 62 -38 0 c-24 0 -53 -10 -80 -27z m68 -36 c0
-65 -66 -176 -89 -151 -10 10 -15 50 -13 100 2 40 35 74 72 74 25 0 30 -4 30
-23z"/>
<path d="M2455 1475 c-30 -24 -30 -24 -6 -25 l24 0 -5 -110 c-2 -60 -1 -110 2
-110 20 0 38 43 45 105 4 39 13 82 21 97 12 23 19 26 47 21 24 -3 37 0 50 15
17 19 17 20 -13 26 -33 6 -58 -3 -80 -29 -12 -14 -14 -13 -24 6 -16 32 -27 32
-61 4z"/>
<path d="M2931 1471 c-17 -16 -31 -37 -31 -48 0 -10 16 -40 35 -67 19 -27 35
-55 35 -62 0 -18 -38 -28 -55 -14 -17 14 -45 -2 -45 -26 0 -37 53 -28 105 17
44 39 45 69 5 119 -33 42 -40 76 -14 66 17 -6 54 19 54 36 0 20 -60 6 -89 -21z"/>
</g>
</svg>
